<svg xmlns="http://www.w3.org/2000/svg" xmlns:xlink="http://www.w3.org/1999/xlink" viewBox="0 0 443.05 452.47"><defs><style>.cls-1{fill:#ffa672;}.cls-2{fill:#ffbb9a;}.cls-3{isolation:isolate;}.cls-4{opacity:0.32;}.cls-5{fill:#c4412f;}.cls-23,.cls-28,.cls-6,.cls-7{fill:#4436bc;}.cls-25,.cls-7{opacity:0.42;}.cls-10,.cls-16,.cls-23,.cls-25,.cls-26,.cls-30,.cls-7,.cls-8{mix-blend-mode:multiply;}.cls-16,.cls-26,.cls-8{fill:#acceff;}.cls-23,.cls-8{opacity:0.5;}.cls-10,.cls-9{fill:#90efdc;}.cls-11{fill:#e0ecff;}.cls-12{fill:#b22e2e;}.cls-13{fill:#424094;}.cls-14{fill:#60ddc6;}.cls-15{clip-path:url(#clip-path);}.cls-17{fill:#eb1e40;}.cls-18{fill:#611b20;}.cls-19{fill:#bb6142;opacity:0.41;}.cls-19,.cls-28,.cls-32{mix-blend-mode:screen;}.cls-20,.cls-30{fill:#c4311d;}.cls-21{opacity:0.2;}.cls-22{fill:#ec372f;}.cls-24,.cls-25,.cls-32{fill:#ff9240;}.cls-26{opacity:0.52;}.cls-27{fill:#402fa5;}.cls-29{clip-path:url(#clip-path-2);}.cls-31{opacity:0.46;}.cls-33{fill:#ff5560;}.cls-34{fill:#ff582c;}</style><clipPath id="clip-path"><path class="cls-1" d="M132.06,152,127.63,168s-3.48,5.62-20.43,1.1C91.06,164.82,92.6,157,92.6,157l3.8-12.73Z"/></clipPath><clipPath id="clip-path-2"><path class="cls-2" d="M301.37,151.68l4.43,16.06s3.48,5.62,20.43,1.1c16.14-4.31,14.6-12.11,14.6-12.11L337,144Z"/></clipPath></defs><title>Mesa de trabajo 16</title><g class="cls-3"><g id="OBJECTS"><path class="cls-1" d="M173.6,299.54s7.6,1.29,11.5-4.39-2.7-2.5-2.7-2.5,3.6-4,2.3-5.38-5.8,2.19-5.8,2.19Z"/><path class="cls-1" d="M163.5,272.5s-9.3,10.58-8.1,15.86,16.1,12.17,19,11.28,8.4-16.66,8.4-18.16S166.1,268.71,163.5,272.5Z"/><path class="cls-5" d="M176.94,296l.6-.9a17.74,17.74,0,0,0,1.08-2,17.39,17.39,0,0,0,1.38-4.22c.08-.37.64-.22.57.15a18.16,18.16,0,0,1-1.39,4.32,17.74,17.74,0,0,1-1.06,2c-.21.33-.42.64-.66.95a2.41,2.41,0,0,1-.74.75.18.18,0,0,1-.27-.2A3.08,3.08,0,0,1,176.94,296Z"/><path class="cls-6" d="M142.1,201.92c9.71,4.9,26.87,12.09,28.83,25.38,1.33,9-4.21,25.41-8,35.2-.1.3-.21.59-.31.88-1.67,4.25-2.9,7.05-2.9,7.05l25.49,17.95q1.26-3.33,2.52-6.61c.1-.24.2-.5.29-.74,10.9-28.35,20.88-54.33,8.31-73.24-13.27-20-50.22-47-57-42.39S134.38,198,142.1,201.92Z"/><path class="cls-7" d="M139.48,196.12a107.07,107.07,0,0,1,21.06,12.45A55.58,55.58,0,0,1,175.67,226c4.11,7.72,5.42,16.24,5,24.91a94.23,94.23,0,0,1-2.73,17.9c-1,4.06-2.26,8-3.53,12l-14.68-10.34s1.23-2.8,2.9-7.05c.1-.29.21-.58.31-.88,3.76-9.79,9.3-26.24,8-35.2-2-13.29-19.12-20.48-28.83-25.38-1.93-1-3.49-3.45-4.64-6.69C138.13,195.53,138.81,195.81,139.48,196.12Z"/><path d="M162.65,263.38c.81.48,1.65,1,2.46,1.46q4.57,2.79,8.94,5.89a168.35,168.35,0,0,1,13.71,11c.1-.24.2-.5.29-.74q-2-1.81-4-3.55a139.15,139.15,0,0,0-13.4-10.16c-2.36-1.59-4.77-3.1-7.22-4.55l-.46-.27C162.86,262.8,162.75,263.09,162.65,263.38Z"/><ellipse class="cls-8" cx="100.97" cy="440.79" rx="100.97" ry="11.68"/><path class="cls-9" d="M114.57,158.47c-2.39-3.64-30.78-8.49-58.32-5.44s-33.16,30.11-33.12,52-4.2,73.43,4.63,81.31,84.09,10.47,93.26.79S132.2,185.32,114.57,158.47Z"/><path class="cls-10" d="M41.84,157.76A19.92,19.92,0,0,1,47.11,164c3.33,6,4.44,13.08,5,20.08,1.29,16.1,1.88,32.38,2.07,48.52q.14,12.48-.43,24.92a135.81,135.81,0,0,1-1.34,14.86,39,39,0,0,1-4.2,13.35,14.39,14.39,0,0,1-4.94,5.22c-7.69-1.17-13.43-2.73-15.51-4.58-8.83-7.88-4.6-59.41-4.63-81.31C23.1,187.67,26.64,167.07,41.84,157.76Z"/><path class="cls-1" d="M65,276.93a344.33,344.33,0,0,0,58.15,1.4c11.23-.62,22.75-1.8,33.74-4.67-.3,25.42-1.57,48.34-3.1,59.06-4.06,28.51-10.59,90.93-10.59,90.93H109.76c.16-26.5,4.77-127,2.65-127.47s-4.87-.29-9.52,2.25C96.72,301.81,75.7,423.65,75.7,423.65H42.61c3-29,16-117.89,19.66-147Z"/><path class="cls-11" d="M54.91,402.66c-3.2-.46-6.4-1-9.59-1.53-1.18,9.15-2.13,16.94-2.71,22.52H75.7s1.26-7.27,3.24-18.3C70.91,404.69,62.89,403.83,54.91,402.66Z"/><path class="cls-11" d="M128.58,406.72q-9.24.22-18.47.13c-.2,6.92-.33,12.73-.35,16.8h33.41s.75-7.09,1.88-17.58Q136.83,406.51,128.58,406.72Z"/><path class="cls-12" d="M150,362.7q-4.57.93-9.19,1.6c-8.36,1.22-16.8,1.87-25.22,2.52-1.39.11-2.77.19-4.16.29,1.16-34.62,2.29-70.68,1-70.93-2.12-.42-4.87-.29-9.52,2.25-3.27,1.79-10.69,36.74-17,69.26-12-.34-23.88-1.5-35.75-3,4.63-33.87,9.92-71.09,12.08-88.07l2.7.32a344.33,344.33,0,0,0,58.15,1.4c11.23-.62,22.75-1.8,33.74-4.67-.3,25.42-1.57,48.34-3.1,59.06C152.62,340.74,151.28,351.45,150,362.7Z"/><path d="M143.75,422.1c-1.18-.57-32.66-.05-34.18.37s-4.74,14-3,17c1.5,2.6,45.5.65,56.42.12a1.78,1.78,0,0,0,1.52-2.56c-1.16-2.33-3.95-5.57-9.23-9C146.6,422.33,143.75,422.1,143.75,422.1Z"/><path d="M76.11,422.1c-1.18-.57-32.65-.05-34.18.37s-4.74,14-3,17c1.49,2.6,45.49.65,56.41.12A1.78,1.78,0,0,0,96.84,437c-1.16-2.33-3.94-5.57-9.23-9C79,422.33,76.11,422.1,76.11,422.1Z"/><path d="M41.07,351.36s1.9,3.25,8,5.95c.3.14.62.27,1,.4,4,1.63,9.7,3,17.55,3.1,21.25.4,33.18-3.46,33.18-3.46s4.39-22.61,7.26-26.62h0c.29-.4.56-.62.82-.59a.43.43,0,0,1,.28.16c2,2.27-4,27.61-4,27.61a114,114,0,0,0,27,.78c15.22-1.34,32.87-4.56,32.87-4.56s.92-4.85,1.82-23.31c.44-9.47,0-24.59-.54-37.06,0-.47,0-.92-.05-1.38h0c-.51-11.19-1.06-19.92-1.06-19.92h-1.75c-.28,0-2.94.07-7.28.2l-1,0c-7.53.21-19.36.54-32.26.92H122l-3.69.12c-.31,0-.61,0-.91,0l-31.56.91-1.13,0-23.36.68-1.29,0c-2.29.05-3.58.1-3.58.1C53.56,284,41.07,351.36,41.07,351.36Z"/><path class="cls-13" d="M49.08,357.31c.3.14.62.27,1,.4.28-1.66.51-3.33.78-5q.87-5.26,1.69-10.56c1.71-10.95,3.25-21.93,4.69-32.91a40.29,40.29,0,0,0,11.58-6.19,45.27,45.27,0,0,0,17.09-28.44l-1.13,0a44.18,44.18,0,0,1-9.36,20.67,48.53,48.53,0,0,1-18.1,13.4c.2-1.5.41-3,.62-4.51q1.23-9.56,2.35-19.11c.38-3.2.74-6.38,1.1-9.58a1.25,1.25,0,0,1,0-.19l-1.29,0c0,.4-.09.8-.13,1.21-.41,3.54-.81,7.09-1.23,10.63q-2.27,19.25-5,38.41-1.34,9.56-2.76,19.08c-.46,3.17-1,6.35-1.43,9.52C49.41,355.26,49.24,356.28,49.08,357.31Z"/><path class="cls-13" d="M118,307.88c0,.26.23.42.45.44l4.2.54c.26,0,.41-.23.44-.45A140.66,140.66,0,0,0,124,288a128.78,128.78,0,0,0-1.17-14.41H122c.59,4.9,1,9.8,1.16,14.75a141.06,141.06,0,0,1-.91,19.6l-3.35-.44c.4-3.5.67-7,.79-10.55a129.79,129.79,0,0,0-.85-19.31c-.16-1.31-.33-2.62-.53-3.93-.31,0-.61,0-.91,0A126.73,126.73,0,0,1,118,307.88Z"/><path class="cls-13" d="M155.05,272.66a47.94,47.94,0,0,0,11.16,21.09c0-.47,0-.92-.05-1.38h0c-.52-.58-1-1.18-1.49-1.79a47.55,47.55,0,0,1-8.43-17.18c-.06-.24-.13-.5-.17-.75Z"/><path class="cls-13" d="M106.74,330.69a63.72,63.72,0,0,1,19.88-6.24c.29,0,.42.38.12.44a120.53,120.53,0,0,0-19.8,6.28C106.66,331.29,106.47,330.82,106.74,330.69Z"/><path class="cls-11" d="M76.86,272.79a163.76,163.76,0,0,0,24.06,3.09c14.65.74,29.65.56,43.82-3.25a66.68,66.68,0,0,0,8.83-3c-4.41-48.79-10.19-93.5-16-102.82-.85-1.36-4.76-3.33-9.92-5.09-.2-.08-.42-.14-.63-.22-6.72-2.23-15.41-4.08-22.33-3.88a39.09,39.09,0,0,0-7,.85c-.27.05-.54.12-.81.19-8.35,2-14,6.45-15,9.52-1.38,4-2.18,81.61-4.3,99.53C77.38,268.89,77.15,270.61,76.86,272.79Z"/><path class="cls-6" d="M148.45,167.07c-1.36-1.53-7.6-3.74-15.86-5.71-.31-.09-.66-.16-1-.25-10.75-2.5-24.63-4.58-35.68-4.35a87.79,87.79,0,0,0-11.23,1c-.43.06-.86.13-1.28.22-13.35,2.23-22.53,7.08-24.19,10.52C57,173,50.11,274.93,46.73,295c-.23,1.36-.59,3.29-1.06,5.74,12.67,1.8,31.38,2.66,44.3,3.12,6.63.24,13.3.39,20,.39,0-1.61.08-3.22.19-4.83.48-6.82.88-28.1.59-34.94s-.93-13.57-1.88-20.29-2.18-13.34-3.56-19.95-2.79-13.1-4.5-19.58-3.64-13-5.58-19.44c-.77-2.56-1.54-5.06-2.54-7.54a29,29,0,0,1-2.17-6.9A7.62,7.62,0,0,1,91.81,165a9.22,9.22,0,0,1,4-3c3.51-1.45,7.56-1.21,11.24-.66a71.14,71.14,0,0,1,11.5,2.88c3.78,1.23,7.42,2.66,10.51,5.24,6.78,5.67,8.26,14.92,9.21,23.21,1.53,13.44,1.49,27,1.06,40.5C138.85,246.89,138,275,137,288.71q-.54,7.32-1,14.64a222,222,0,0,0,24.05-3.1,140.78,140.78,0,0,0,14.11-3.4C167.05,242.11,157.81,177.53,148.45,167.07Z"/><path class="cls-14" d="M84.27,156.75a.73.73,0,0,1,.75.47c7.76,17.37,7.46,40.06,2.07,60.14-5.55,20.69-18.23,39.32-34.33,50.36-1.92,1.32-4.37.83-5.2-1.38-1-2.62.75-6,2.51-8.42,4.74-6.63,17.17-24.31,22.81-46.22s.74-39.59-2.81-49.78a1.23,1.23,0,0,1,.44-1.54C74,158.62,80.72,157.16,84.27,156.75Z"/><path class="cls-14" d="M142,162.49a27.93,27.93,0,0,1,13.29,12c19.86,36.5,15.4,72.9,14.34,74.36-1.33,1.83-3.35-2.73-3.48-3.5-6-35.43-13.73-54.81-19-64.37A83.48,83.48,0,0,0,139,169c-1.54-1.89-3.16-3.68-4.76-5.5-.5-.57-2-1.78-1.94-2.7,0-2,7.24.69,8.09,1C141,162,141.49,162.25,142,162.49Z"/><path class="cls-1" d="M132.06,152,127.63,168s-3.48,5.62-20.43,1.1C91.06,164.82,92.6,157,92.6,157l3.8-12.73Z"/><g class="cls-15"><path class="cls-12" d="M125.07,160.18A36.65,36.65,0,0,1,113.32,159,43.24,43.24,0,0,1,100,153.89c-4-2.5-7.19-6-8.25-10a4.18,4.18,0,0,1,.5-3.91,6.11,6.11,0,0,1,3.83-1.55,32.23,32.23,0,0,1,8.37.24c8.44,1.13,16.62,3.71,24.59,6.56,1.94.7,4,1.52,5.06,3.06,1.31,1.93,1.64,6,.35,7.89C132.75,158.66,128.29,159.87,125.07,160.18Z"/></g><path class="cls-16" d="M88.4,162.19c-.63-1.36,3.95-12.85,7.77-9.94S109.08,166.12,124.9,165c3.69-.26,5.11-4.61,5.82-6.51a.46.46,0,0,1,.84-.1c1.3,2.31,3.93,8.27,4,9.74.08,2.5-2.06,11.06-3.52,11.25s-7.45-9-7.45-9-6.28,11.68-8.3,11.08C113,180.49,96.66,180.05,88.4,162.19Z"/><path class="cls-11" d="M87.56,160.28c-.64-1.37,4-12.88,7.92-10s13.13,13.8,29.23,12.59c3.76-.28,5.2-4.64,5.93-6.55a.47.47,0,0,1,.85-.1c1.32,2.31,4,8.25,4,9.72.08,2.5-2.1,11.07-3.58,11.27s-7.59-8.94-7.59-8.94S118,180,115.92,179.41C112.55,178.44,96,178.09,87.56,160.28Z"/><path class="cls-17" d="M124.35,177.54c-1.78-.07-9.3,75.65-8,78.36s8.81,12.87,11.88,13.21,9.34-12.39,9.28-15.27S128.49,177.71,124.35,177.54Z"/><path class="cls-17" d="M123.63,168.8c-1.68.1-6.8,9.67-6.07,10.68s4.22,3.51,7.45,3.14,5.37-3,5.26-3.89S126.85,168.62,123.63,168.8Z"/><path class="cls-18" d="M159,26.68c12.48,9.55,18.2,27.15,13.74,42.27a18.17,18.17,0,0,1-3.54,7,8.7,8.7,0,0,1-6.95,3.13c-4.73-.38-7.59-5.28-9.61-9.6-3.45-7.4-6.84-14.9-8.66-22.87-1.35-5.89-3.1-15.94.15-21.54C147.24,19.8,155.5,24,159,26.68Z"/><path class="cls-1" d="M175.77,91.2a136.6,136.6,0,0,1-.65,15.64,1.07,1.07,0,0,1,0,.25c-.14,1.55-.36,3.06-.58,4.55-2,12.86-6.46,23.75-15,31.48a.93.93,0,0,0-.15.13,41.84,41.84,0,0,1-4.89,3.75h0c-7.39,4.79-17.17,7.79-30,8.47-.58,0-1.17.05-1.76.06s-1.31.05-2,.06c-1.49,0-2.94,0-4.42-.11C98,154.25,81.66,143.13,71.75,126.25c-.08-.16-.16-.3-.24-.44-.8-1.39-1.55-2.81-2.27-4.26a75.32,75.32,0,0,1-7.11-25C58.05,58.64,81.47,23.6,115.28,21.45,149.64,19.26,175.27,46.66,175.77,91.2Z"/><path class="cls-18" d="M180.38,36.4A11.18,11.18,0,0,1,176,44.26a16.94,16.94,0,0,1-8.36,3.18,24,24,0,0,1-22-9.65,3.81,3.81,0,0,1-.08,3.87,6.7,6.7,0,0,1-3,2.45A19.31,19.31,0,0,1,134,45.57a37,37,0,0,1-18.36-5.65c1.56,2.23,2.67,4.88,2.06,7.42a8.7,8.7,0,0,1-2.75,4.21,20.47,20.47,0,0,1-14.74,5.26A26.67,26.67,0,0,1,85.05,51c1,4,3.51,7.54,4.78,11.49a19.21,19.21,0,0,1,.9,7.13,8.59,8.59,0,0,1-2.24,5.72,4,4,0,0,1-5.57.06,21.91,21.91,0,0,1,.66,6,4.89,4.89,0,0,1-.88,3.07,3.46,3.46,0,0,1-3.79.72,11.64,11.64,0,0,1-3.49-2.38c.85,3.5,2.84,6.66,3.76,10.15s.38,7.85-2.62,9.45c-2.28,1.21-5.29.35-7.23-1.54a13.61,13.61,0,0,1-3.48-7.29,47.83,47.83,0,0,1-11.09.17,13.31,13.31,0,0,1-4-1.09c-2.78-1.37-4.61-4.27-6.1-7.09a78.52,78.52,0,0,1-8.5-27.67c-.24-2.3-.4-4.57-.44-6.86a35.12,35.12,0,0,1,1.58-12.58,18.43,18.43,0,0,1,2.51-4.82,13.67,13.67,0,0,1,5.13-4.49A15.14,15.14,0,0,1,53.56,28,26.4,26.4,0,0,1,62,13.88,33.45,33.45,0,0,1,67.7,9.74,28,28,0,0,1,83.06,5.59l.82.06a9.15,9.15,0,0,1,6,2.64,4,4,0,0,1,1,1.84,34.39,34.39,0,0,1,16-9.15,11.31,11.31,0,0,1,6.57-.06A3.82,3.82,0,0,1,116,3.39a4,4,0,0,1-.23,2.2,12.35,12.35,0,0,1-2.11,3.84,43.85,43.85,0,0,1,9.53-4.53A86.53,86.53,0,0,1,162.05.59a31.53,31.53,0,0,1,7.33,1.56c1.66.6,3.4,1.61,4.05,3.33.92,2.42-.79,5-2.75,6.42a13.41,13.41,0,0,1-7.25,2.5,29.37,29.37,0,0,1,15.3,14.68A15.37,15.37,0,0,1,180.38,36.4Z"/><path class="cls-19" d="M84.59,11.26c-.57,4.56-3.39,8.57-6.66,11.8,3.14,1.73,6.79,4.34,6.27,7.9a7,7,0,0,1-2.15,3.71A15,15,0,0,1,72.5,39a3.84,3.84,0,0,0-1.69.33c-1.9,1.09-.23,4.08-.75,6.21-.61,2.52-4,3-6.56,2.35s-5.14-1.93-7.56-1c-3.1,1.22-3.82,5.13-4.71,8.33a26.71,26.71,0,0,1-3.69,7.84,5.19,5.19,0,0,1-1.6,1.63c-1.86,1-4.08-.37-5.6-1.83a35.26,35.26,0,0,1-4.22-5c-.24-2.3-.4-4.57-.44-6.86a35.12,35.12,0,0,1,1.58-12.58,18.43,18.43,0,0,1,2.51-4.82A5.22,5.22,0,0,1,41.47,35a10.22,10.22,0,0,1,2.15,5.63,30.05,30.05,0,0,1,11.73-3.27c1.86-.13,4-.26,5-1.86,1.37-2.3-1.23-5.37-.22-7.87.64-1.61,2.48-2.3,3.91-3.3a8.39,8.39,0,0,0,2.65-3.11,4.18,4.18,0,0,0,.52-2.13c-.18-2.53-3.3-3.4-5.18-5.19A33.45,33.45,0,0,1,67.7,9.74,28,28,0,0,1,83.06,5.59l.82.06A11.8,11.8,0,0,1,84.59,11.26Z"/><path class="cls-1" d="M47.51,83.21A11.24,11.24,0,0,0,40.23,88,17.61,17.61,0,0,0,37.3,98.47a28.58,28.58,0,0,0,9.82,21c3.75,3.31,8.59,6.29,13.73,6.74a10.78,10.78,0,0,0,11.72-8.59,23,23,0,0,0,.06-8.55C70.86,97,62.43,80.45,47.51,83.21Z"/><path class="cls-20" d="M49.35,94.39c2.7-.06,5.09,1.67,6.8,3.62a21,21,0,0,1,5,16.24c-.09.85-1.42.9-1.37,0a20.62,20.62,0,0,0-4.13-13.39,15.46,15.46,0,0,0-2.2-2.4,7.68,7.68,0,0,0-1.66,3.37,8.32,8.32,0,0,0-.14,2.14c0,.19,0,.38.05.57,0-.14,0,.19,0,.18l.06.28a4.83,4.83,0,0,1,.2,1.31.85.85,0,0,1-1.42.6,4.47,4.47,0,0,1-1-2.82,7.84,7.84,0,0,1,.25-2.77,8.39,8.39,0,0,1,2.2-3.86,6.68,6.68,0,0,0-1.41-.59,4.13,4.13,0,0,0-2.73.18c-.88.4-1.31,1.27-2.11,1.71a.9.9,0,0,1-1.32-.52C44,95.78,47.41,94.43,49.35,94.39Z"/><g class="cls-21"><path class="cls-22" d="M125.42,150.82a18.06,18.06,0,0,1-2.75,4.71q-1,0-2,.06c-1.49,0-2.94,0-4.42-.11C98,154.25,81.66,143.13,71.75,126.25c-.08-.16-.16-.3-.24-.44-.8-1.39-1.55-2.81-2.27-4.26a18.44,18.44,0,0,1,3.67-4.91c4.91-4.7,12-6.68,18.84-6.16s13.25,3.33,18.9,7.12c5.45,3.64,10.36,8.34,13.33,14.19S127.83,144.73,125.42,150.82Z"/><path class="cls-22" d="M175.12,106.84a1.07,1.07,0,0,1,0,.25c-.14,1.55-.36,3.06-.58,4.55-2,12.86-6.46,23.75-15,31.48a.93.93,0,0,0-.15.13,84.16,84.16,0,0,1,3.53-18.45C165.24,117.83,169.24,111.2,175.12,106.84Z"/></g><path class="cls-18" d="M111.66,70.92a3,3,0,0,0-.91.86c-1.42,2.47,5.08,1.3,6.09,1.25a51.86,51.86,0,0,1,5.29,0c2.75.14,5.91.24,7.63-2a3.2,3.2,0,0,0,.42-3.35,4.23,4.23,0,0,0-3.64-2c-4.16-.3-8.72,1.55-12.39,3.71C113.26,69.86,112.43,70.39,111.66,70.92Z"/><path class="cls-18" d="M164.23,68.3c-2.58-2-5.93-3.6-9.31-3.09a4.38,4.38,0,0,0-3.24,2.16,3.82,3.82,0,0,0-.22,3.34c1,2.22,3.54,2,5.77,1.67a33.64,33.64,0,0,1,4.23-.24c.8,0,5.82.84,5.09-1.56a2,2,0,0,0-.59-.82A19.81,19.81,0,0,0,164.23,68.3Z"/><path class="cls-20" d="M150.08,96a5.73,5.73,0,0,0-4-.44c-.27.06-.54.2-.82.27a2.3,2.3,0,0,1,0-.26,22.3,22.3,0,0,1,.08-2.71A62.23,62.23,0,0,1,147,82a.58.58,0,0,0-1.12-.31,47.57,47.57,0,0,0-2,9.14,40,40,0,0,0-.4,4.75c0,1.06.46,2.25,1.71,2.2a16.3,16.3,0,0,0,1.7-.44,4,4,0,0,1,1.81.13,3.13,3.13,0,0,1,2,3,4.09,4.09,0,0,1-5,4.4.57.57,0,0,0-.4,1,3.89,3.89,0,0,0,3.86.6,5.42,5.42,0,0,0,3-3C153.1,100.93,152.67,97.42,150.08,96Z"/><path d="M129.21,94.19a9.82,9.82,0,0,0-2-2.12,11.11,11.11,0,0,0-5.55-2.3,12.11,12.11,0,0,0-6.23.94,12.33,12.33,0,0,0-2.89,1.7,7.25,7.25,0,0,0-2.18,2.43c-.19.43.2.92.66.66.81-.45,1.48-1.15,2.27-1.66a15.44,15.44,0,0,1,2.56-1.39,11.08,11.08,0,0,1,5.42-.84A10.1,10.1,0,0,1,126,93.46a10,10,0,0,1,1.89,1.78c.52.63.93,1.43,1.5,2a.52.52,0,0,0,.88-.36A4.93,4.93,0,0,0,129.21,94.19Z"/><path d="M155,94.19a9.22,9.22,0,0,1,1.29-2.12,6.2,6.2,0,0,1,3.59-2.3,5.43,5.43,0,0,1,4,.94,8.2,8.2,0,0,1,1.86,1.7,7.06,7.06,0,0,1,1.42,2.43c.12.43-.13.92-.43.66-.53-.45-1-1.15-1.47-1.66a9.72,9.72,0,0,0-1.66-1.39,5,5,0,0,0-3.51-.84,5.53,5.53,0,0,0-3,1.85,9,9,0,0,0-1.22,1.78c-.34.63-.6,1.43-1,2-.21.33-.56.08-.57-.36A6.87,6.87,0,0,1,155,94.19Z"/><path class="cls-20" d="M154.39,112.29a7.44,7.44,0,0,1-3.76,1.4,23.68,23.68,0,0,1-3.76.34,26.82,26.82,0,0,1-7.14-.82,27.25,27.25,0,0,1-6.66-2.68,31.39,31.39,0,0,1-3-2c-1-.75-2-1.63-3-2.36-.5-.36-1.16.34-.84.84,1.41,2.19,3.92,3.89,6.15,5.16a26.93,26.93,0,0,0,7.4,2.84,25.85,25.85,0,0,0,7.89.6c2.53-.2,5.72-.54,7.49-2.57A.56.56,0,0,0,154.39,112.29Z"/><path class="cls-1" d="M51.6,304s-8.18,2.36-13.18-2.93,2.64-2.92,2.64-2.92-4.46-3.59-3.21-5.2,6.65,1.46,6.65,1.46Z"/><path class="cls-1" d="M59.24,275s11.56,9.56,10.92,15.13S54,304.77,50.73,304.25,39.39,288.34,39.2,286.81,55.91,271.45,59.24,275Z"/><path class="cls-5" d="M47.48,300.88l-.77-.85a21.22,21.22,0,0,1-1.43-1.85A17.59,17.59,0,0,1,43.22,294c-.13-.37-.73-.13-.6.24a18.24,18.24,0,0,0,2.07,4.23,19.58,19.58,0,0,0,1.42,1.87c.27.3.54.6.84.88a2.63,2.63,0,0,0,.91.67c.17.06.34-.09.27-.24A2.8,2.8,0,0,0,47.48,300.88Z"/><path class="cls-6" d="M58.56,264.67c-5.37-9.51-13.55-25.6-13.23-35,.17-4.93,2.63-9.38,5.79-13a45.91,45.91,0,0,1,5.74-5.5c2.86-2.36,5.57-4.24,7.72-7.33a44,44,0,0,0,7.33-19.44c.91-6.88,2.86-26.28-8.48-20A101.79,101.79,0,0,0,54.49,170a144.45,144.45,0,0,0-13.07,11.14c-8.61,8.08-16.8,16.94-23.31,26.82-1.13,1.72-2.1,3.52-3.18,5.27-11.38,21.07,2.88,46.31,18.45,73.84.13.24.28.49.41.72,1.21,2.13,2.41,4.27,3.62,6.43l25.68-21.86s-1.7-2.7-4.07-6.83C58.87,265.24,58.71,265,58.56,264.67Z"/><path d="M59,265.52c-.84.61-1.69,1.22-2.52,1.84q-4.66,3.48-9.06,7.25a182.9,182.9,0,0,0-13.65,13.17c-.13-.23-.28-.48-.41-.72,1.29-1.41,2.62-2.8,3.95-4.18a155.85,155.85,0,0,1,13.42-12.23c2.39-1.95,4.84-3.82,7.34-5.64l.47-.34C58.71,265,58.87,265.24,59,265.52Z"/><path class="cls-23" d="M60.29,208.5A34.83,34.83,0,0,1,67,205.19a34.16,34.16,0,0,1-5.9,4.53c-.84.52-1.7,1-2.56,1.52.13,0,.27-.07.41-.09a11.53,11.53,0,0,1,2.42-.13,8.18,8.18,0,0,1,2.41.44,24.38,24.38,0,0,1-4.6,1.11c-1.54.24-3,.42-4.63.64A27.11,27.11,0,0,1,60.29,208.5Z"/><path class="cls-24" d="M253.48,187.49c10.42,4,23,.5,32.54-6.43-.76,10.7,8.16,20,18.51,21.21s21.07-4.57,27.88-13.05a2.76,2.76,0,0,1,1.08-1c1-.38,1.87.48,2.51,1.25,5.75,6.89,13,12.7,21.45,15.53s18.32,2.42,26.33-2.28,13.66-14,13.09-23.14c6.3,2.75,12.7,5.52,19.54,6.36s14.28-.49,19.68-5.13c6.38-5.48,8.75-15.39,5.53-23s-11.6-11.55-19.71-10.57c-14,1.7-27.5-9.53-19.45-40.3,5-18.93,2.46-41.54-5.11-59.55-.83-2-1.75-3.89-2.77-5.76-6.44-11.8-16.45-20.93-29.39-24.92-14.87-4.58-31.82-2.09-46.21,3-14.21,5-27.68,14.42-35.75,27.54-11.83,19.22-13.1,43.72-8.62,64.91,1,4.81,2.37,9.54,3.06,14.45,1.29,9.12-.59,22.11-11.47,25.34-6.59,1.95-14.16-1.53-20,2.34a13.38,13.38,0,0,0-4.42,5.37C236.61,170.35,243.05,183.44,253.48,187.49Z"/><path class="cls-25" d="M254,186.61a56.7,56.7,0,0,0,17.47-10.31,55.84,55.84,0,0,0,14.73-20.14,65.39,65.39,0,0,0,5.08-26.25c0-9.88-1.47-19.68-3.36-29.36-1.85-9.48-4.08-18.88-5-28.51-.86-8.74-.83-17.71,1.35-26.26,8.16-12.32,21.11-21.2,34.76-26,14.39-5.09,31.34-7.58,46.21-3,1.05.32,2.08.69,3.09,1.09A88.93,88.93,0,0,1,386,45.39a69,69,0,0,1,4.71,20.37A85.49,85.49,0,0,1,388.59,90c-1.9,8.54-4.68,16.84-7.35,25.16a60.19,60.19,0,0,0-2.88,12,33.79,33.79,0,0,0,.82,12.39c1.83,6.76,5.77,12.79,10.27,18.06a71.94,71.94,0,0,0,16.36,14.23,36.18,36.18,0,0,0,13.39,5.24,42.51,42.51,0,0,0,14.1.1,26.56,26.56,0,0,0,7.44-2.36,19.58,19.58,0,0,1-4.65,6c-5.4,4.64-12.85,6-19.68,5.13s-13.24-3.61-19.54-6.36c.57,9.18-5.12,18.45-13.09,23.14s-17.84,5.11-26.33,2.28-15.7-8.64-21.45-15.53c-.64-.77-1.54-1.63-2.51-1.25a2.76,2.76,0,0,0-1.08,1c-6.81,8.48-17.54,14.25-27.88,13.05S285.26,191.76,286,181.06c-9.53,6.93-22.12,10.48-32.54,6.43-.31-.12-.6-.27-.9-.41C253.06,186.93,253.52,186.78,254,186.61Z"/><path class="cls-2" d="M252.1,281.09c-1.58,3-3.64,7-4.83,9.3-3,3.17-14.7,23.06-11.81,25.18,2,1.38,7.11-7.1,7.76-7.87-.67,1.27-.75,21.34,2.76,21.91,2.33.41,3.19-12.65,3.59-14.11-.36,1.63,1.47,18.79,5.18,18.49,2.67-.32.67-18.28,1.26-18.25-.41.13,4.59,14.91,7.28,14.14,1.81-.55-1-15.93-.55-16-.17.08,3.38,9.11,5.22,8.54,1.38-.39-2.08-13.72-1.25-19.09,0-4.43,3.07-13.2,4.25-16C264.59,285.46,258.31,283.36,252.1,281.09Zm-2.49,34.32s0,0,0,0S249.62,315.39,249.61,315.41Z"/><path class="cls-11" d="M300.59,194.06c-.47,15.09-9.91,23.33-17.63,55.55-5.35,22.31-9.74,42.12-11.94,52.2-.07.33-.13.66-.21,1-.85,3.88-1.3,6.07-1.3,6.07-9.29-.63-31.91-5.28-31.14-10.3.3-1.9.59-3.79.91-5.69.05-.28.09-.57.15-.86,10.34-60.58,34.26-114.34,42.62-123.49C292.27,157.35,301.07,179,300.59,194.06Z"/><path class="cls-26" d="M292,167.23c-.63.87-1.26,1.74-1.87,2.63a155.37,155.37,0,0,0-16,30.36,202.74,202.74,0,0,0-9.83,33.08q-1.78,8.56-3,17.24c-.92,6.67-1.43,13.38-1.91,20.1-.86,12-1.76,24.15-5,35.77a106.47,106.47,0,0,0,15.16,2.45s.45-2.19,1.3-6.07c.08-.32.14-.65.21-1,2.2-10.08,6.59-29.89,11.94-52.2,7.72-32.22,17.16-40.46,17.63-55.55C300.9,184.3,297.32,171.8,292,167.23Z"/><path class="cls-16" d="M271,301.81c-.07.33-.13.66-.21,1-4.94-1.35-9.81-3-14.68-4.57-5.62-1.77-11.23-3.57-16.85-5.35.05-.28.09-.57.15-.86q8.5,2.6,17,5.22C261.27,298.74,266.21,300.12,271,301.81Z"/><path class="cls-27" d="M312.88,160.09c2.39-3.64,30.77-8.49,58.31-5.44s33.17,30.11,33.13,52,4.19,73.43-4.64,81.31-84.08,10.47-93.25.79S295.25,186.94,312.88,160.09Z"/><path class="cls-28" d="M385.6,159.38a19.9,19.9,0,0,0-5.26,6.22c-3.33,6-4.45,13.07-5,20.08-1.29,16.1-1.88,32.37-2.06,48.52q-.15,12.48.43,24.92A133.38,133.38,0,0,0,375,274a39.29,39.29,0,0,0,4.2,13.35,14.64,14.64,0,0,0,4.94,5.22c7.69-1.18,13.44-2.73,15.51-4.58,8.83-7.88,4.6-59.41,4.64-81.31C404.35,189.29,400.8,168.69,385.6,159.38Z"/><path class="cls-11" d="M401.15,236.86c8.87,2.7,11.34-10.45,9.39-16-5.7-16.16-18.3-32.2-31.44-45.71-3.89-4-8-8.42-12.65-11.38-13.53-8.6-13.24,14.16-7.05,28.62,2.85,6.67,7.44,12.16,12.1,17.5C375.59,214.59,390,233.47,401.15,236.86Z"/><ellipse class="cls-8" cx="329.13" cy="440.79" rx="100.97" ry="11.68"/><path d="M271.22,311.73a.07.07,0,0,0,0,.14A.07.07,0,0,0,271.22,311.73Z"/><path class="cls-11" d="M364,249.49c-.74.39-1.49.73-2.25,1-7,2.82-14.62,3.31-22,3.89-8.07.64-16.09,1.59-24.18,2-8.53.39-17.22.29-25.52-2-7.25-2-14.77-4.41-19.82-10.3A18,18,0,0,1,266,236c-1-5.4,1.16-10.69,2.1-15.93,1-5.48,1.91-10.94,3.13-16.38a194.62,194.62,0,0,1,6.95-25.12c1.39-3.77,2.94-7.89,5.65-10.94,1.36-1.53,7.6-3.74,15.85-5.71.32-.09.67-.16,1-.24,10.75-2.51,24.63-4.59,35.68-4.36a88,88,0,0,1,11.23.95c.43.06.86.13,1.28.22,13.34,2.23,18.92,4.25,24,10.68,1.9,2.42,2.33,36.39,3.68,66.68.07,1.51-1.49,3-2.29,4.15a35.17,35.17,0,0,1-3.46,4.43A26.53,26.53,0,0,1,364,249.49Z"/><path class="cls-2" d="M301.37,151.68l4.43,16.06s3.48,5.62,20.43,1.1c16.14-4.31,14.6-12.11,14.6-12.11L337,144Z"/><g class="cls-29"><path class="cls-30" d="M306,160.6a37,37,0,0,0,11.8-.57,43.58,43.58,0,0,0,13.59-4.49c4.08-2.3,7.47-5.67,8.72-9.57a4.16,4.16,0,0,0-.32-3.93A6.11,6.11,0,0,0,336,140.3a33,33,0,0,0-8.37-.17c-8.49.72-16.78,2.91-24.88,5.36-2,.6-4.1,1.32-5.21,2.81-1.39,1.87-1.93,5.9-.73,7.87C298.37,158.71,302.77,160.13,306,160.6Z"/></g><path class="cls-16" d="M345.41,164.09c.64-1.37-4-12.85-7.77-10s-12.9,13.87-28.73,12.75c-3.69-.26-5.1-4.62-5.82-6.52a.46.46,0,0,0-.84-.1c-1.3,2.32-3.93,8.28-4,9.75-.07,2.49,2.07,11,3.52,11.24s7.45-9,7.45-9,6.28,11.67,8.3,11.08C320.86,182.39,337.15,181.94,345.41,164.09Z"/><path class="cls-11" d="M346.25,162.17c.64-1.36-4-12.87-7.91-10s-13.13,13.8-29.24,12.6c-3.76-.29-5.19-4.64-5.92-6.55a.48.48,0,0,0-.86-.1c-1.32,2.3-4,8.25-4,9.72-.07,2.49,2.1,11.07,3.59,11.26s7.58-8.93,7.58-8.93,6.39,11.71,8.44,11.12C321.26,180.34,337.84,180,346.25,162.17Z"/><path class="cls-17" d="M309.2,170.6c1.68.09,6.8,9.66,6.07,10.68s-4.23,3.5-7.45,3.13-5.37-3-5.27-3.88S306,170.41,309.2,170.6Z"/><path class="cls-17" d="M300.69,225.49a6,6,0,0,1-2.19-2.14,15.68,15.68,0,0,1-1.68-3.35,25.33,25.33,0,0,1-.72-2.44,23.94,23.94,0,0,0,2.35-6.25c1.43-5.88,1.69-12,3-17.85,1.06-4.75,4.44-11.35,8.8-16.61a8.74,8.74,0,0,0-.43,3c0,.32,0,.63.06.95,1.78,20.21,15.86,33,8.54,45.9a26.28,26.28,0,0,1-2.42,1.55,20.33,20.33,0,0,1-5.47,2.21,29.13,29.13,0,0,1-4.25.67,36.25,36.25,0,0,0,4.11-8.47,28,28,0,0,0,.58-12.16c-.55-4.05-1.57-8-2.22-12.08-.52-3.24-1.55-7.12-1.58-10.41-4.64,10.26.66,21.9-2.51,31.08C303.85,221.48,302.71,224,300.69,225.49Z"/><path class="cls-6" d="M353,158.8a.85.85,0,0,0-.83.48c-9.76,17.42-11.41,38.56-7.91,55.69,3.34,16.32,12.84,29.51,25.31,36.28A3.45,3.45,0,0,0,374,250c1.14-1.9.11-4.14-1.06-5.77-3.22-4.49-12.07-17.11-14.82-34.57-3-19,3.88-35.58,8.75-45.6.29-.59.27-1.28-.24-1.55C363.3,160.7,356.6,159.22,353,158.8Z"/><path class="cls-6" d="M291.24,162.53a25.94,25.94,0,0,0-12.47,10.67c-18.86,32.34-15.11,64.6-14.15,65.89,1.21,1.62,1.89-2.48,2-3.16,6-31.4,14.62-48.51,19.66-57A74.19,74.19,0,0,1,294,168.28c1.45-1.67,3-3.26,4.48-4.87.47-.5,1.83-1.57,1.83-2.39,0-1.74-6.73.61-7.53.9C292.24,162.11,291.74,162.31,291.24,162.53Z"/><path class="cls-2" d="M361.58,176.47c-1.21,5.23-2.72,4.2-4,3.31s-13.59-7.55-17.12-.63a19.2,19.2,0,0,0-1.06,2.71,12,12,0,0,0-.12,3.49,12.92,12.92,0,0,1,.13,5.07c-.39,1.5-1,2.53-.4,4a9.75,9.75,0,0,1,1.11,3.7c0,1.75-.7,3.12-.31,4.91.07.3.16.58.25.86a2,2,0,0,0,.16.14c.35.26.71.51,1.07.76,3.35,2.3,7.5,3,11.19,4.55a87.85,87.85,0,0,1,15.93,9.11L378.82,197C367.11,192,369.87,176.1,361.58,176.47Z"/><path class="cls-11" d="M411.72,236.17c-8.81,16.8-36.28-5-48.19-15.58l-.77-.69c-2.29-2.05-3.89-3.6-4.54-4.22.91-1.73,12.45-25.83,13.1-27.83.81.37,2.55,1.3,4.87,2.67l.49.3C389.9,198.72,420.22,220,411.72,236.17Z"/><path class="cls-16" d="M376.68,190.82A144.86,144.86,0,0,1,369.3,209c-1.59,3.43-3.28,6.82-5,10.16l-.73,1.4-.77-.69c.45-.82.9-1.66,1.33-2.49,3.36-6.46,6.56-13,9.39-19.72,1-2.36,1.94-4.75,2.71-7.17Z"/><path class="cls-16" d="M403.9,212q-3.7-3.5-7.63-6.72c-2.62-2.14-5.29-4.21-8-6.18s-5.51-3.93-8.32-5.82q-2.1-1.43-4.25-2.78c-1.42-.94-2.87-1.82-4.34-2.67a72.06,72.06,0,0,1,9,4.75c2.92,1.75,5.73,3.67,8.5,5.65s5.43,4.13,7.95,6.43A68.26,68.26,0,0,1,403.9,212Z"/><path class="cls-2" d="M317.94,301.72c-6.21,0-12.42-.11-18.61-.44a156.5,156.5,0,0,1-24.42-3l-.28-.07c.58,15,1.47,27.41,2.48,34.5,4.06,28.51,10.59,90.93,10.59,90.93h33.42C321,400.84,317.55,323.19,317.94,301.72Z"/><path class="cls-30" d="M283.53,327.27c8.19,1.2,16.46,1.91,24.72,2.35,3.36.18,6.73.33,10.09.49-.32-12.19-.51-22.45-.4-28.39-6.21,0-12.42-.11-18.61-.44a156.5,156.5,0,0,1-24.42-3l-.28-.07c.42,11,1,20.55,1.7,27.69Q279.89,326.73,283.53,327.27Z"/><path class="cls-11" d="M320.07,384.63c0-.5,0-1-.05-1.53-12.29-.24-24.57-.85-36.85-1,0,.4.09.81.14,1.21s.07.62.1.92c2.39,21.23,4.29,39.43,4.29,39.43h33.42c0-7.75-.48-21.89-1-38C320.1,385.31,320.08,385,320.07,384.63Z"/><path class="cls-6" d="M287.13,422.1c1.18-.57,32.65-.05,34.18.37s4.73,14,3,17c-1.5,2.6-45.5.65-56.41.12A1.77,1.77,0,0,1,266.4,437c1.16-2.33,3.94-5.57,9.23-9C284.27,422.33,287.13,422.1,287.13,422.1Z"/><path d="M286.89,429.7a20.27,20.27,0,0,0-5.61-2,17.49,17.49,0,0,0-6.8-.14c-.79.15-.59,1.39.19,1.39a22.23,22.23,0,0,1,11.47,2.73c.67.39,2,1.33,2.49.19S287.64,430.11,286.89,429.7Z"/><path d="M294.36,428.9a2.38,2.38,0,0,0-.43-.34A14.11,14.11,0,0,0,291,427a29.17,29.17,0,0,0-3.49-1.28,24.49,24.49,0,0,0-7.42-1,.77.77,0,0,0,0,1.54A28.57,28.57,0,0,1,287,427.6a23,23,0,0,1,3.19,1.26c1.07.52,2.08,1.25,3.18,1.66S295,429.56,294.36,428.9Z"/><path d="M295.33,424.07a24.14,24.14,0,0,0-3.5-1.31,18.29,18.29,0,0,0-7.25-.47.48.48,0,0,0,0,1,26.53,26.53,0,0,1,6.76,1.31,20.75,20.75,0,0,1,3.09,1.28q.78.39,1.53.84a1.49,1.49,0,0,0,1.58.18.67.67,0,0,0,.33-.58C297.93,425.12,296.21,424.49,295.33,424.07Z"/><path class="cls-2" d="M383.77,423.64H350.35S337,361.23,329.79,332.71q-.33-1.33-.69-2.91c-1.66-7.32-3.62-18.49-5.58-31.58l.29.06a160.61,160.61,0,0,0,24.76,3c6.22.33,12.45.46,18.66.45.5,5.52,1.66,14.72,3.16,25.78C374.71,359.46,381.81,406.7,383.77,423.64Z"/><path class="cls-30" d="M370.39,327.51c-11.4,2.92-32.8,2.63-41.29,2.29-1.66-7.32-3.62-18.49-5.58-31.58l.29.06a160.61,160.61,0,0,0,24.76,3c6.22.33,12.45.46,18.66.45C367.73,307.25,368.89,316.45,370.39,327.51Z"/><path class="cls-11" d="M378.45,384.63c-.19-1.32-.38-2.66-.57-4l0-.16q-5.1.53-10.22,1c-8.7.72-17.43,1.29-26.16,1.58,0,.1,0,.2.07.3.06.32.14.62.2.92,4.72,21.23,8.62,39.43,8.62,39.43h33.42c-.9-7.75-2.88-21.89-5.18-38C378.55,385.31,378.5,385,378.45,384.63Z"/><path class="cls-6" d="M349.79,422.1c1.18-.57,32.65-.05,34.18.37s4.73,14,3,17c-1.5,2.6-45.5.65-56.41.12a1.78,1.78,0,0,1-1.53-2.56c1.17-2.33,3.95-5.57,9.24-9C346.93,422.33,349.79,422.1,349.79,422.1Z"/><path d="M349.55,429.7a20.27,20.27,0,0,0-5.61-2,17.49,17.49,0,0,0-6.8-.14c-.79.15-.6,1.39.19,1.39a22.23,22.23,0,0,1,11.47,2.73c.67.39,2,1.33,2.49.19S350.3,430.11,349.55,429.7Z"/><path d="M357,428.9a2.38,2.38,0,0,0-.43-.34A14.11,14.11,0,0,0,353.7,427a29.17,29.17,0,0,0-3.49-1.28,24.54,24.54,0,0,0-7.42-1,.77.77,0,0,0,0,1.54,28.57,28.57,0,0,1,6.91,1.29,23,23,0,0,1,3.19,1.26c1.07.52,2.08,1.25,3.18,1.66S357.64,429.56,357,428.9Z"/><path d="M358,424.07a24.14,24.14,0,0,0-3.5-1.31,18.29,18.29,0,0,0-7.25-.47.48.48,0,0,0,0,1,26.37,26.37,0,0,1,6.75,1.31,20.43,20.43,0,0,1,3.1,1.28q.78.39,1.53.84a1.49,1.49,0,0,0,1.58.18.67.67,0,0,0,.33-.58C360.59,425.12,358.87,424.49,358,424.07Z"/><path d="M391.21,317.33a100.07,100.07,0,0,1-12.77,3l-.76.13c-29.88,5.25-82.89,5.94-120.92-6.06,4.08-13.77,7.74-31.82,11.05-49.76h0c.1-.49.19-1,.27-1.48,1-5.61,2.22-11.18,3.21-16.62a.76.76,0,0,1,.9-.59c1.62.35,3.13.67,4.82,1,.34.08.69.13,1,.18,5.6.93,11.27,1.57,16.88,2.07l.48,0,1.51.14c1.21.1,2.41.19,3.61.26l.89.08a321.49,321.49,0,0,0,39.5.19c.4,0,.8,0,1.19-.06,2.46-.14,4.94-.31,7.4-.5,2.9-.23,5.8-.48,8.66-.78l.67-.07c2.33-.25,4.62-.52,6.93-.79a1.34,1.34,0,0,1,1.49,1.16c.86,6.52,1.69,11.87,2.41,14.71C374.13,281,386.5,310.66,391.21,317.33Z"/><path class="cls-13" d="M378.44,320.37l-.76.13c-.54-1.3-1.06-2.61-1.57-3.89-1.18-3-2.33-6-3.41-8.95a280.2,280.2,0,0,1-14.53-59.11l.67-.07c.59,4.11,1.26,8.2,2,12.3a300.59,300.59,0,0,0,8,32.56q2.46,8.1,5.35,16.1C375.52,313.12,377,316.74,378.44,320.37Z"/><path class="cls-13" d="M363.53,280.94a43.77,43.77,0,0,1-8.51-7,59.7,59.7,0,0,1-10.88-15.69,53.9,53.9,0,0,1-3.22-8.37c.4,0,.8,0,1.19-.06a1.53,1.53,0,0,1,.08.26,57.66,57.66,0,0,0,8.34,16.83,70.75,70.75,0,0,0,13.29,13.6A.26.26,0,0,1,363.53,280.94Z"/><path class="cls-13" d="M278.05,247.11a61.7,61.7,0,0,1-3.66,7.94,55.11,55.11,0,0,1-6.58,9.62c.1-.49.19-1,.27-1.48a61.84,61.84,0,0,0,5.62-8.7,59.69,59.69,0,0,0,3.31-7.56C277.35,247,277.7,247.06,278.05,247.11Z"/><path class="cls-13" d="M301.24,251.36a77.16,77.16,0,0,0,.39,16.69c.22,1.72.51,3.88-.65,5.19s-3.37.78-4.62-.6c-1.71-1.87-1.56-4.68-1.64-6.91-.13-3-.15-5.89-.1-8.81.06-2.59.15-5.16.31-7.74l.48,0c-.16,2.91-.24,5.84-.2,8.76,0,2.69.12,5.4.28,8.1.13,2.23,0,5.67,2.57,6.87s3-1.86,2.91-3.63c-.2-2.4-.58-4.82-.73-7.22a78.6,78.6,0,0,1,.29-12.48l.89.08C301.35,250.25,301.29,250.8,301.24,251.36Z"/><path class="cls-2" d="M265,140c7,7.84,18.08,13.42,35.53,15.86,1.62.23,3.29.42,5,.59,23.18,2.3,44.23-8.79,56.29-27.74a69,69,0,0,0,10.35-31c3.42-38.2-22.88-73.33-58.72-77.12S258,41.89,254.8,85c-.49,6.67-.81,13.12-.71,19.21C254.32,118.44,256.85,130.78,265,140Z"/><path class="cls-24" d="M255.65,60.71a5.46,5.46,0,0,0,4.2,1.55c2.58,0,5.17-.69,7.75-.88,2.81-.2,5.61-.46,8.4-.81A154.64,154.64,0,0,0,299.71,56a97.51,97.51,0,0,0,23.42-9.84c.33-.21,1.71-1,3.32-2.09,2.9-1.89,6.53-4.43,6.29-5.09.69,2,1.31,3.92,1.91,5.88,2.63,8.52,4.72,17,8.35,25.17a64.94,64.94,0,0,0,4,7.71c2,3.23,3.75,6.81,4.07,10.6.3,3.54-.64,7.14-.75,10.69-.14,3.83-.66,7.55,3.69,7.8s6.54-8.25,14.08-8,8.08,8.31,12.78,6.47c2.78-1.08,4.87-4.54,6.67-6.63,11.83-13.58,17.24-29.93,11.95-46.85a47.38,47.38,0,0,0-1.76-4.71c-.79-1.83-2.77-6.37-4-8.64q-.21-.39-.39-.69a65.9,65.9,0,0,0-15-17.29,76.61,76.61,0,0,0-8-5.81c-19-12.08-42.67-15.92-64.56-11.6a83.91,83.91,0,0,0-27,10.35c-.62.37-1.24.75-1.85,1.14a51.06,51.06,0,0,0-5.85,4.36A47.66,47.66,0,0,0,256,42.76a46.89,46.89,0,0,0-1.31,6.53C254.23,52.83,253.23,58.14,255.65,60.71Z"/><g class="cls-31"><path class="cls-32" d="M334.65,44.85c2.63,8.52,4.72,17,8.35,25.17a8.27,8.27,0,0,0,1.57,0c3.18-.42,6-2.58,9.24-2.68,6.65-.22,10.85,8.07,17.46,8.92,6.19.8,11.21-5.42,12.54-11.52.81-3.69.94-7.87,3.57-10.56,3-3.09,7.6-2.77,12.11-2.32a47.38,47.38,0,0,0-1.76-4.71c-.79-1.83-2.77-6.37-4-8.64l-5.92,1.33C370.42,43.7,352.42,46,334.65,44.85Z"/><path class="cls-32" d="M256,42.76c1.08.37,2.18.75,3.22,1.22,3.25,1.46,6.05,3.82,9.21,5.48a24.47,24.47,0,0,0,14,2.64c2.73-.31,5.41-1.08,8.16-1.21s5.72.54,7.55,2.59A10.78,10.78,0,0,1,299.71,56a97.51,97.51,0,0,0,23.42-9.84c.33-.21,1.71-1,3.32-2.09-1.77-.24-3.54-.49-5.3-.81a106.59,106.59,0,0,1-18.23-4.87,91.56,91.56,0,0,1-29.4-17.22c-.8-.72-1.61-1.46-2.39-2.24A47.66,47.66,0,0,0,256,42.76Z"/></g><path class="cls-33" d="M314.44,62.36a.13.13,0,0,1,0,0C314.53,62.2,314.56,62.16,314.44,62.36Z"/><path class="cls-2" d="M388.81,95.19a11.46,11.46,0,0,1,5.18,6.47,17.43,17.43,0,0,1,.09,10.26A23.68,23.68,0,0,1,381,127.38c-5.28,2.38-14.07,4.08-18.89-1.81-2.14-2.62-2.4-6.18-2.09-9.33.69-6.86,2.69-15.12,8.33-18.91C373.33,94,382.6,91.62,388.81,95.19Z"/><path class="cls-20" d="M369.49,114a17.14,17.14,0,0,1,3.5-6,17.89,17.89,0,0,1,5.88-4.16,10.91,10.91,0,0,1,7.52-.67,7.8,7.8,0,0,1,3,1.68c.78.72,1.85,2,1.58,3.17a1,1,0,0,1-1.45.76c-.77-.34-1.24-1.24-1.88-1.79a6.39,6.39,0,0,0-2.28-1.23,6.71,6.71,0,0,0-1.53-.26,7.92,7.92,0,0,1,1,4.73,8.21,8.21,0,0,1-.89,2.91,7.16,7.16,0,0,1-.94,1.36,5.29,5.29,0,0,1-.52.54,1.72,1.72,0,0,1-1,.43.93.93,0,0,1-1-1.08,1.91,1.91,0,0,1,.29-.74c.13-.19.29-.35.43-.53a6.6,6.6,0,0,0,.57-.91,6.53,6.53,0,0,0,.79-2.31,7.12,7.12,0,0,0-.75-4.24,12.84,12.84,0,0,0-2.84,1,17.68,17.68,0,0,0-8.17,8C370.39,115.47,369.16,114.87,369.49,114Z"/><g class="cls-21"><path class="cls-22" d="M299.74,153.71a20.43,20.43,0,0,0,.78,2.1c1.62.23,3.29.42,5,.59,23.18,2.3,44.23-8.79,56.29-27.74a21.19,21.19,0,0,0-2.67-4.16c-4.82-5.83-12.35-9-19.77-9.38s-14.67,1.78-21.12,5.12c-6.18,3.21-11.84,7.6-15.5,13.46S297.65,146.94,299.74,153.71Z"/><path class="cls-22" d="M265,140a90.41,90.41,0,0,0-2.6-18.54,47.72,47.72,0,0,0-8.3-17.16C254.32,118.44,256.85,130.78,265,140Z"/></g><path class="cls-12" d="M299.33,108.94c-3.71-2-7.28.52-14.4.24s-11.39-2.65-12.5-1.23c-2.57,3.26,2.82,12.39,12.68,13.63S303,111,299.33,108.94Z"/><path class="cls-34" d="M290,113a27.3,27.3,0,0,0-10,7.13,17.25,17.25,0,0,0,5.05,1.44c7.71,1,14.3-6,15.06-10.12C297.36,110.2,292.68,111.88,290,113Z"/><path class="cls-20" d="M284.52,84.43a1,1,0,0,0-1.64-.06c-.77,1.13-.58,3.1-.59,4.48,0,1.54,0,3.08,0,4.62,0,.83,0,1.66,0,2.49,0,.47.15,1.39-.18,1.77-.47.54-1.75.07-2.3-.15a7.91,7.91,0,0,0-3.76-.94,3,3,0,0,0-2.52,2c-.42,1.25.23,2.64.74,3.82a11.21,11.21,0,0,0,2.43,3.61c.4.39.83-.13.71-.54-.4-1.4-.95-2.76-1.38-4.16-.13-.43-.48-1.31-.17-1.7s.77-.25,1.09-.19c1.18.19,2.26,1,3.44,1.25a4.49,4.49,0,0,0,3.09-.29c2.33-1.28,1.66-4.82,1.66-7.17,0-1.47,0-3,0-4.43S285.28,85.63,284.52,84.43Z"/><path d="M302,92.45c-.11,3.39,1.57,6.2,3.77,6.27s4.08-2.6,4.2-6-1.56-6.2-3.77-6.28S302.09,89.06,302,92.45Z"/><path d="M265,90.54c-.1,2.84,1.24,5.19,3,5.25s3.26-2.19,3.36-5-1.24-5.19-3-5.25S265.1,87.7,265,90.54Z"/><path class="cls-24" d="M310.44,78.29a6.48,6.48,0,0,0-.08-.67A9.63,9.63,0,0,0,307,72a13.74,13.74,0,0,0-4.5-2.61,16.1,16.1,0,0,0-3.35-.8c-1.22-.15-3-.4-4.12.27a1.21,1.21,0,0,0,.38,2.17,13,13,0,0,0,3.66.62,21,21,0,0,1,3,.58,11.93,11.93,0,0,1,7.49,6,1.75,1.75,0,0,0,.43.62C310.4,79.17,310.47,78.76,310.44,78.29Z"/><path class="cls-24" d="M265.66,75.37c0-.22.07-.46.1-.65a9.15,9.15,0,0,1,2.86-5,8.5,8.5,0,0,1,3.48-2,8.81,8.81,0,0,1,2.51-.32c.91,0,2.24,0,3,.83a1.34,1.34,0,0,1-.42,2.09,6.9,6.9,0,0,1-2.73.11,10.82,10.82,0,0,0-2.25.17,8.41,8.41,0,0,0-5.9,4.89A1.5,1.5,0,0,1,266,76C265.63,76.25,265.61,75.84,265.66,75.37Z"/></g></g></svg>